<svg xmlns="http://www.w3.org/2000/svg" viewBox="0 0 352 556.87">
  <defs>
    <style>.cls-1{fill:#6f5e58;}.cls-2{fill:#5bc5ec;}.cls-3{fill:#1d6d8f;}.cls-4{fill:#c7b299;}.cls-5{fill:none;stroke:#6f5e58;stroke-miterlimit:10;stroke-width:4px;}</style>
  </defs>
  <title>envelope</title>

  <g id="Bottom">
    <polygon class="cls-1" points="0 0 0 278.43 0 556.87 246.67 556.87 246.67 0 0 0"/>
    <polygon class="cls-2" points="0 0 0 278.43 0 556.87 242.67 556.87 242.67 0 0 0"/>
    <path class="cls-3" d="M416,678.62H375.71V121.76H416c32,0,62.75,29.24,62.75,57.68L481,400.19,478.8,620.94C478.8,649.38,448.1,678.62,416,678.62Z" transform="translate(-129.04 -121.76)"/>
  </g>

  <g id="Top">
    <polygon class="cls-4" points="155.05 278.43 155.05 91.62 246.67 0 0 0 0 278.43 0 556.87 246.67 556.87 155.05 465.06 155.05 278.43"/>
    <line class="cls-5" x1="155.05" y1="278.43" y2="278.43"/>
    <circle class="cls-3" cx="83.71" cy="278.43" r="15"/>
    <circle class="cls-1" cx="83.71" cy="278.43" r="5"/>
  </g>
</svg>
